#!OML:ASF E:\acrobat2\Project_11_07_03\Capture day 1\Session 1\Acrobat.ASF
:FULLY-SPECIFIED
:DEGREES
498
root 11.5047 18.0939 9.21533 1.94118 6.60363 -4.35167
lowerback -2.38763 1.46478 5.17769
upperback 0.563155 1.77969 0.667397
thorax 2.05667 0.946748 -2.13791
lowerneck 2.21404 -3.30926 -1.66461
upperneck 3.72696 -4.58729 5.67653
head 0.969585 -2.26858 2.04904
rclavicle 2.40778e-014 5.26779e-015
rhumerus -32.1721 7.8452 -78.5775
rradius 40.997
rwrist 0.178544
rhand -1.56437 -45.7879
rfingers 7.12502
rthumb 24.0912 -74.2955
lclavicle 2.40778e-014 5.26779e-015
lhumerus -40.0468 -9.25884 91.5055
lradius 18.8322
lwrist 9.7086
lhand -10.3116 -7.99504
lfingers 7.12502
lthumb 15.6836 21.3893
rfemur 6.95484 2.56609 28.6423
rtibia 4.72802
rfoot -19.5346 -11.0466
rtoes 5.25342
lfemur -26.9424 6.27533 -10.5334
ltibia 29.6274
lfoot -4.50349 -3.32575
ltoes 21.653
499
root 11.5181 18.0719 9.38171 2.03158 6.41254 -4.37638
lowerback -2.59806 1.53695 5.22797
upperback 0.565808 1.86209 0.590521
thorax 2.1883 0.991941 -2.23541
lowerneck 2.20873 -3.2987 -1.61586
upperneck 3.65011 -4.56558 5.54983
head 0.940404 -2.25922 1.99957
rclavicle -2.58917e-014 2.61402e-014
rhumerus -31.7751 8.03599 -78.3832
rradius 41.5288
rwrist -0.0792467
rhand -1.79982 -45.6388
rfingers 7.12502
rthumb 23.8654 -74.1761
lclavicle -2.58917e-014 2.61402e-014
lhumerus -40.3692 -8.81143 91.2389
lradius 18.5563
lwrist 9.48301
lhand -9.89878 -7.89144
lfingers 7.12502
lthumb 16.0811 21.4613
rfemur 7.52493 2.5799 28.6986
rtibia 4.64182
rfoot -19.9309 -10.7945
rtoes 5.00978
lfemur -26.6602 6.15902 -10.5768
ltibia 26.4084
lfoot -4.87731 -2.77502
ltoes 21.2561
500
root 11.5318 18.0479 9.55038 2.12696 6.20522 -4.42564
lowerback -2.84263 1.61753 5.2935
upperback 0.573738 1.95253 0.521766
thorax 2.34589 1.04207 -2.33107
lowerneck 2.18788 -3.28304 -1.57165
upperneck 3.58053 -4.53819 5.44503
head 0.916788 -2.24655 1.95786
rclavicle 2.11892e-014 3.52843e-014
rhumerus -31.3898 8.1768 -78.183
rradius 42.0356
rwrist -0.294257
rhand -2.06482 -45.4386
rfingers 7.12502
rthumb 23.6112 -74.0089
lclavicle 2.11892e-014 3.52843e-014
lhumerus -40.6665 -8.41796 90.9907
lradius 18.2602
lwrist 9.19287
lhand -9.44031 -7.83858
lfingers 7.12502
lthumb 16.5226 21.4779
rfemur 8.09979 2.6409 28.7911
rtibia 4.54814
rfoot -20.3354 -10.5724
rtoes 4.81402
lfemur -26.3109 5.9934 -10.5637
ltibia 23.1459
lfoot -5.39682 -2.12679
ltoes 20.9141
501
root 11.5461 18.022 9.72088 2.22458 5.97048 -4.49865
lowerback -3.10987 1.70754 5.37608
upperback 0.589775 2.05278 0.460521
thorax 2.52628 1.09805 -2.42645
lowerneck 2.13204 -3.25735 -1.53792
upperneck 3.52769 -4.49898 5.36076
head 0.904872 -2.22721 1.92411
rclavicle 8.13154e-015 -1.55052e-014
rhumerus -31.0064 8.274 -77.9817
rradius 42.525
rwrist -0.459205
rhand -2.32457 -45.2284
rfingers 7.12502
rthumb 23.3621 -73.8306
lclavicle 8.13154e-015 -1.55052e-014
lhumerus -40.9447 -8.08731 90.7673
lradius 17.9766
lwrist 8.87842
lhand -8.9082 -7.74902
lfingers 7.12502
lthumb 17.0348 21.5241
rfemur 8.66566 2.74415 28.9141
rtibia 4.47377
rfoot -20.7487 -10.3621
rtoes 4.67573
lfemur -25.8907 5.75534 -10.4783
ltibia 19.8476
lfoot -6.07249 -1.38361
ltoes 20.8679
502
root 11.5612 17.9944 9.89304 2.3229 5.7075 -4.59189
lowerback -3.38077 1.80621 5.47849
upperback 0.602863 2.1631 0.405063
thorax 2.70767 1.15943 -2.52545
lowerneck 2.06355 -3.22391 -1.51414
upperneck 3.48544 -4.45027 5.28276
head 0.898574 -2.20287 1.89398
rclavicle -1.4592e-014 6.16232e-015
rhumerus -30.6432 8.34333 -77.7847
rradius 43.0007
rwrist -0.564591
rhand -2.50905 -45.0726
rfingers 7.12502
rthumb 23.1851 -73.6972
lclavicle -1.4592e-014 6.16232e-015
lhumerus -41.2271 -7.82429 90.5771
lradius 17.7185
lwrist 8.56807
lhand -8.28637 -7.5571
lfingers 7.12502
lthumb 17.6333 21.6633
rfemur 9.21227 2.85806 29.0511
rtibia 4.43687
rfoot -21.1668 -10.1309
rtoes 4.58153
lfemur -25.4031 5.41328 -10.3136
ltibia 16.5318
lfoot -6.90103 -0.59506
ltoes 21.4223
503
root 11.5776 17.9651 10.0669 2.41818 5.42344 -4.69287
lowerback -3.64944 1.91027 5.59607
upperback 0.611509 2.27975 0.348954
thorax 2.88513 1.22421 -2.63242
lowerneck 2.00862 -3.189 -1.47255
upperneck 3.43494 -4.39838 5.17902
head 0.886153 -2.17723 1.85274
rclavicle 3.86636e-014 -1.88845e-014
rhumerus -30.3074 8.39758 -77.6032
rradius 43.4591
rwrist -0.624649
rhand -2.60272 -45.0053
rfingers 7.12502
rthumb 23.0952 -73.6412
lclavicle 3.86636e-014 -1.88845e-014
lhumerus -41.5173 -7.62557 90.4191
lradius 17.4822
lwrist 8.26031
lhand -7.63975 -7.33063
lfingers 7.12502
lthumb 18.2554 21.8327
rfemur 9.74291 2.95735 29.1788
rtibia 4.43554
rfoot -21.5749 -9.87183
rtoes 4.45355
lfemur -24.8648 4.9352 -10.0802
ltibia 13.2572
lfoot -7.86734 0.207715
ltoes 22.684
504
root 11.5953 17.9343 10.242 2.50645 5.12451 -4.78788
lowerback -3.89778 2.0143 5.71507
upperback 0.60854 2.39754 0.29122
thorax 3.0401 1.28898 -2.74181
lowerneck 1.98243 -3.15457 -1.41705
upperneck 3.37637 -4.34583 5.04198
head 0.865141 -2.15184 1.79892
rclavicle 3.05259e-014 3.57812e-015
rhumerus -30.0066 8.45971 -77.4458
rradius 43.8823
rwrist -0.675609
rhand -2.65223 -45.0168
rfingers 7.12502
rthumb 23.0477 -73.6586
lclavicle 3.05259e-014 3.57812e-015
lhumerus -41.8055 -7.4565 90.2837
lradius 17.2334
lwrist 7.90284
lhand -7.04895 -7.15256
lfingers 7.12502
lthumb 18.8237 21.9566
rfemur 10.2652 3.04695 29.2849
rtibia 4.46508
rfoot -21.964 -9.60577
rtoes 4.22673
lfemur -24.303 4.30435 -9.79292
ltibia 10.1031
lfoot -8.94985 1.01854
ltoes 24.5166
505
root 11.6141 17.9026 10.4178 2.58829 4.81599 -4.86824
lowerback -4.11315 2.11551 5.82324
upperback 0.588374 2.51454 0.231474
thorax 3.15893 1.35209 -2.84803
lowerneck 1.98086 -3.11433 -1.3761
upperneck 3.32292 -4.28612 4.90756
head 0.841896 -2.12326 1.74903
rclavicle -2.10215e-014 3.97569e-015
rhumerus -29.7423 8.54459 -77.315
rradius 44.255
rwrist -0.754769
rhand -2.69126 -45.0874
rfingers 7.12502
rthumb 23.0102 -73.7339
lclavicle -2.10215e-014 3.97569e-015
lhumerus -42.083 -7.29031 90.1574
lradius 16.9485
lwrist 7.43642
lhand -6.54685 -7.08152
lfingers 7.12502
lthumb 19.3066 21.9801
rfemur 10.7752 3.14385 29.3685
rtibia 4.53432
rfoot -22.3362 -9.35519
rtoes 3.89985
lfemur -23.7551 3.53927 -9.47042
ltibia 7.16277
lfoot -10.1258 1.82639
ltoes 26.398
506
root 11.6336 17.8705 10.5935 2.66666 4.50153 -4.9338
lowerback -4.30357 2.21484 5.92255
upperback 0.560545 2.63136 0.164325
thorax 3.25634 1.41441 -2.9574
lowerneck 1.97927 -3.06788 -1.35218
upperneck 3.27458 -4.21937 4.80154
head 0.821343 -2.09106 1.71133
rclavicle -1.61637e-014 1.59028e-014
rhumerus -29.4987 8.61643 -77.2114
rradius 44.5766
rwrist -0.842018
rhand -2.72891 -45.1706
rfingers 7.12502
rthumb 22.9741 -73.8216
lclavicle -1.61637e-014 1.59028e-014
lhumerus -42.3387 -7.12573 90.0223
lradius 16.6377
lwrist 6.87139
lhand -6.11553 -7.14566
lfingers 7.12502
lthumb 19.7213 21.8739
rfemur 11.2593 3.24175 29.4287
rtibia 4.66219
rfoot -22.6905 -9.11173
rtoes 3.49216
lfemur -23.2713 2.70376 -9.13601
ltibia 4.55316
lfoot -11.3514 2.59424
ltoes 27.8684
507
root 11.6538 17.838 10.769 2.74369 4.18493 -4.97453
lowerback -4.46611 2.31017 6.00407
upperback 0.522785 2.74625 0.0839841
thorax 3.32795 1.47478 -3.0714
lowerneck 1.97775 -3.01975 -1.34346
upperneck 3.22666 -4.1517 4.73629
head 0.80243 -2.05828 1.68941
rclavicle 1.92697e-014 1.47101e-014
rhumerus -29.2795 8.64143 -77.1355
rradius 44.8485
rwrist -0.889691
rhand -2.75523 -45.2317
rfingers 7.12502
rthumb 22.9489 -73.8859
lclavicle 1.92697e-014 1.47101e-014
lhumerus -42.5828 -6.95453 89.8633
lradius 16.322
lwrist 6.25854
lhand -5.68051 -7.24635
lfingers 7.12502
lthumb 20.1395 21.7298
rfemur 11.7104 3.31285 29.4426
rtibia 4.86298
rfoot -23.0223 -8.83759
rtoes 3.06118
lfemur -22.8951 1.89781 -8.83953
ltibia 2.38857
lfoot -12.5393 3.23523
ltoes 28.881
508
root 11.6748 17.8057 10.9446 2.82004 3.87488 -4.98336
lowerback -4.60243 2.39607 6.05668
upperback 0.476204 2.85261 -0.00835643
thorax 3.37448 1.52969 -3.18325
lowerneck 1.98678 -2.96992 -1.34398
upperneck 3.1665 -4.08233 4.70596
head 0.779048 -2.02479 1.68055
rclavicle 8.69683e-015 1.03368e-014
rhumerus -29.0836 8.61891 -77.0837
rradius 45.0726
rwrist -0.890107
rhand -2.78847 -45.2551
rfingers 7.12502
rthumb 22.917 -73.9132
lclavicle 8.69683e-015 1.03368e-014
lhumerus -42.8153 -6.76376 89.677
lradius 16.0216
lwrist 5.6475
lhand -5.18812 -7.28887
lfingers 7.12502
lthumb 20.6127 21.6367
rfemur 12.1244 3.33913 29.3934
rtibia 5.14409
rfoot -23.3302 -8.50673
rtoes 2.66237
lfemur -22.6665 1.26946 -8.64649
ltibia 0.791605
lfoot -13.5272 3.64382
ltoes 29.3783
509
root 11.6966 17.7735 11.1199 2.89316 3.58034 -4.98181
lowerback -4.72367 2.47048 6.10069
upperback 0.434693 2.9451 -0.104504
thorax 3.4166 1.5776 -3.29564
lowerneck 1.99306 -2.9199 -1.34778
upperneck 3.08457 -4.01241 4.69397
head 0.7499 -1.99118 1.6782
rclavicle 2.73205e-014 -1.19271e-015
rhumerus -28.8937 8.55048 -77.0502
rradius 45.2523
rwrist -0.848252
rhand -2.86709 -45.2208
rfingers 7.12502
rthumb 22.8415 -73.8882
lclavicle 2.73205e-014 -1.19271e-015
lhumerus -43.0153 -6.55545 89.4685
lradius 15.7492
lwrist 5.07805
lhand -4.6425 -7.24778
lfingers 7.12502
lthumb 21.1369 21.6201
rfemur 12.4985 3.31704 29.3043
rtibia 5.51359
rfoot -23.6195 -8.10528
rtoes 2.3362
lfemur -22.6223 1.5514 -8.82913
ltibia -0.061
lfoot -13.5914 3.36525
ltoes 29.3914
510
root 11.719 17.7417 11.295 2.95387 3.30855 -4.99055
lowerback -4.82331 2.53437 6.15756
upperback 0.400385 3.02404 -0.198201
thorax 3.45359 1.61904 -3.41437
lowerneck 1.99487 -2.87605 -1.35046
upperneck 2.98623 -3.95018 4.68382
head 0.716703 -1.96152 1.67623
rclavicle -2.96189e-014 8.74653e-015
rhumerus -28.7164 8.45178 -77.0334
rradius 45.3905
rwrist -0.776287
rhand -2.98118 -45.1527
rfingers 7.12502
rthumb 22.732 -73.8336
lclavicle -2.96189e-014 8.74653e-015
lhumerus -43.1954 -6.36248 89.2606
lradius 15.5213
lwrist 4.57522
lhand -4.08563 -7.12771
lfingers 7.12502
lthumb 21.6717 21.6794
rfemur 12.8456 3.2564 29.2052
rtibia 5.96629
rfoot -23.8819 -7.64495
rtoes 2.13322
lfemur -22.7281 1.83213 -8.98967
ltibia -0.279893
lfoot -13.4344 2.95232
ltoes 29.0445
511
root 11.742 17.7103 11.4709 2.98888 3.06137 -5.01678
lowerback -4.89755 2.59263 6.23547
upperback 0.373294 3.09564 -0.288976
thorax 3.48441 1.65722 -3.54327
lowerneck 2.00943 -2.84432 -1.34024
upperneck 2.87347 -3.90312 4.65924
head 0.676773 -1.93971 1.6676
rclavicle -8.48562e-015 -1.98785e-015
rhumerus -28.5714 8.32499 -77.0337
rradius 45.4929
rwrist -0.689689
rhand -3.1171 -45.0828
rfingers 7.12502
rthumb 22.6016 -73.7796
lclavicle -8.48562e-015 -1.98785e-015
lhumerus -43.3694 -6.21081 89.0658
lradius 15.3352
lwrist 4.14018
lhand -3.58514 -7.00228
lfingers 7.12502
lthumb 22.1523 21.7485
rfemur 13.1905 3.17569 29.1135
rtibia 6.47829
rfoot -24.0839 -7.18143
rtoes 1.93275
lfemur -22.9553 2.1043 -9.12446
ltibia 0.105328
lfoot -12.9799 2.46857
ltoes 28.0846
512
root 11.7659 17.6798 11.6494 2.98402 2.83357 -5.05472
lowerback -4.95712 2.64902 6.33189
upperback 0.36068 3.16423 -0.38034
thorax 3.52323 1.69487 -3.68359
lowerneck 2.04241 -2.82066 -1.33054
upperneck 2.74868 -3.86645 4.63501
head 0.630433 -1.92344 1.65951
rclavicle 1.14301e-015 -9.54166e-015
rhumerus -28.4749 8.15319 -77.0528
rradius 45.5726
rwrist -0.58143
rhand -3.2534 -45.0352
rfingers 7.12502
rthumb 22.4708 -73.7479
lclavicle 1.14301e-015 -9.54166e-015
lhumerus -43.5217 -6.07976 88.8664
lradius 15.1537
lwrist 3.73866
lhand -3.18739 -6.94217
lfingers 7.12502
lthumb 22.5341 21.7629
rfemur 13.5629 3.07074 29.0197
rtibia 7.02902
rfoot -24.2154 -6.74151
rtoes 1.48188
lfemur -23.2398 2.35994 -9.24781
ltibia 0.993007
lfoot -12.2119 1.96501
ltoes 26.4191
